<svg version="1.1" id="Layer_1" xmlns="http://www.w3.org/2000/svg" x="0" y="0" viewBox="0 0 784.5 271.7" xml:space="preserve"><style>.st0{fill:#006098}.st5{fill:#7b868c}</style><path class="st0" d="M64.9 180.2h-39l-5.5 15.1H0L33.8 108h23.3l33.6 87.3H70.4l-5.5-15.1zm-34-16.1h28.9l-14.4-40-14.5 40zM136.6 187.2c-4.7 6-11.9 9.5-19.5 9.6-16 0-28-12-28-33.1 0-20.7 11.9-33.2 28-33.2 7.7 0 14.9 3.6 19.5 9.7V108h16.8v87.3h-16.8v-8.1zm0-34.8c-2.9-4.2-8.8-7.2-14.4-7.2-9.4 0-16 7.5-16 18.5s6.5 18.3 16 18.3c5.6 0 11.5-3 14.4-7.2v-22.4zM157.4 132.1h17.8l16.5 44 16.5-44h17.9l-25.4 63.2h-17.9l-25.4-63.2zM257 130.5c18.8 0 31.7 14.1 31.7 34.8v3.7h-47c1 8 7.5 14.7 18.2 14.7 5.9 0 12.8-2.4 16.9-6.3l7.4 10.8c-6.4 5.9-16.2 8.8-26 8.8-19.2 0-33.8-12.9-33.8-33.2-.1-18.6 13.3-33.3 32.6-33.3zm-15.6 27.2h31.1c-.4-6-4.6-14-15.6-14-10.3 0-14.7 7.7-15.5 14zM338.1 157c0-8.8-4.6-11.8-11.6-11.8-5.7.1-11.1 2.8-14.4 7.5v42.5h-16.6V132h16.6v8.2c5.6-6.3 13.7-9.9 22.1-9.8 13.9 0 20.5 7.9 20.5 20.1v44.6h-16.6V157zM369.2 179.5v-33h-10.5v-14.4h10.5v-17.3H386v17.3h12.8v14.5H386v28.5c0 3.9 2.1 6.9 5.8 6.9 2.1.1 4.1-.6 5.8-1.8l3.5 12.6c-2.5 2.2-6.9 4.1-13.9 4.1-11.7-.1-18-6.1-18-17.4zM480.3 158.6h-41.2v36.6h-18.6v-87.3h18.6v34.3h41.2v-34.3H499v87.3h-18.7v-36.6zM539.2 130.5c18.8 0 31.7 14.1 31.7 34.8v3.7h-47c1 8 7.5 14.7 18.2 14.7 5.9 0 12.8-2.4 16.9-6.3l7.3 10.8c-6.4 5.9-16.2 8.8-26 8.8-19.2 0-33.8-12.9-33.8-33.2 0-18.6 13.5-33.3 32.7-33.3zm-15.6 27.2h31.1c-.4-6-4.6-14-15.6-14-10.2 0-14.7 7.7-15.5 14zM623.6 187.2c-4.7 6-11.9 9.5-19.5 9.6-16 0-28-12-28-33.1 0-20.7 11.9-33.2 28-33.2 7.7 0 14.9 3.6 19.5 9.7v-8.1h16.8v63.2h-16.8v-8.1zm0-34.6c-2.9-4.2-8.8-7.2-14.4-7.2-9.4 0-16 7.3-16 18.3s6.5 18.3 16 18.3c5.6 0 11.5-3 14.4-7.2v-22.2zM651.6 107.9h16.6v87.3h-16.6v-87.3zM685.4 179.5v-33h-10.5v-14.4h10.5v-17.3h16.8v17.3H715v14.5h-12.8v28.5c0 3.9 2.1 6.9 5.8 6.9 2.1.1 4.1-.6 5.7-1.8l3.5 12.6c-2.5 2.2-6.9 4.1-13.9 4.1-11.7-.1-17.9-6.1-17.9-17.4zM766.5 156.8c0-8.8-4.6-11.5-11.8-11.5-5.7.1-11 2.9-14.4 7.5v42.5h-16.6V108h16.6v32.3c5.7-6.4 13.8-9.9 22.3-9.8 13.9 0 20.5 7.6 20.5 19.9v44.9h-16.7v-38.5z"/><path d="M578 41.1l5.2 32.5-23 3.7-5.2-32.6 23-3.6m2.6-3.6l-29.3 4.6 6.1 38.8 29.3-4.7-6.1-38.7z" fill="#9aa2a8"/><path class="st0" d="M564 51.5l-24.9 3.9c-10.6 1.7-20.6-5.6-22.2-16.2l-3-19c-.5-3.3 1.7-6.3 5-6.8l19-3c10.6-1.7 20.5 5.6 22.2 16.2l3.9 24.9z"/><path d="M596.7 46.3l-24.9 3.9-4-24.9c-1.7-10.6 5.6-20.6 16.2-22.2h.1l19-3c3.3-.5 6.3 1.7 6.9 5l3 19c1.6 10.6-5.7 20.5-16.3 22.2z" fill="#00a0df"/><path d="M554.8 98.1l-15 2.4c-2.9.5-5.7-1.5-6.1-4.5L531 79.1c-1.3-7.9 4.1-15.2 12-16.5l22.2-3.5 3.2 20.3c1.4 8.9-4.7 17.3-13.6 18.7z" fill="#80bc00"/><path d="M610 89.3l-15 2.4c-8.9 1.4-17.3-4.7-18.7-13.6L573 57.8l22.2-3.5c7.9-1.2 15.3 4.1 16.5 12l2.7 16.9c.5 2.9-1.5 5.7-4.4 6.1z" fill="#00615c"/><path class="st5" d="M64.1 232.5h27v7H72.2v8.3h18.4v7H72.2v15.9h-8.1v-38.2zM94.8 256.8c0-7.8 5.5-14.5 14.6-14.5s14.6 6.6 14.6 14.5-5.5 14.5-14.6 14.5-14.6-6.7-14.6-14.5zm21.6 0c0-4.3-2.6-8-7.1-8s-7 3.7-7 8 2.5 8.1 7 8.1 7.1-3.8 7.1-8.1zM148 267.1c-2.5 2.7-6 4.2-9.7 4.2-6.1 0-8.9-3.3-8.9-8.7V243h7.3v16.7c0 3.8 2 5.1 5.1 5.1 2.5 0 4.8-1.2 6.3-3.1V243h7.3v27.6H148v-3.5zM181 253.9c0-3.8-2-5.1-5.1-5.1-2.5 0-4.9 1.3-6.3 3.3v18.6h-7.3V243h7.3v3.6c2.4-2.8 6-4.3 9.6-4.3 6 0 9 3.4 9 8.8v19.5H181v-16.7zM214.4 267.1c-2 2.6-5.2 4.2-8.5 4.2-7 0-12.2-5.3-12.2-14.5 0-9 5.2-14.5 12.2-14.5 3.3 0 6.5 1.6 8.5 4.2v-14h7.3v38.1h-7.3v-3.5zm0-15.2c-1.5-2-3.8-3.1-6.3-3.1-4.1 0-7 3.2-7 8s2.9 8 7 8c2.5 0 4.8-1.2 6.3-3.1v-9.8zM247.9 267.1c-2 2.6-5.2 4.2-8.5 4.2-7 0-12.2-5.3-12.2-14.5 0-9 5.2-14.5 12.2-14.5 3.3 0 6.5 1.6 8.5 4.2V243h7.3v27.6h-7.3v-3.5zm0-15.2c-1.5-2-3.8-3.1-6.3-3.1-4.1 0-7 3.2-7 8s2.9 8 7 8c2.5 0 4.8-1.2 6.3-3.1v-9.8zM263.8 263.7v-14.4h-4.6V243h4.6v-7.5h7.3v7.5h5.6v6.3h-5.6v12.5c0 1.7.9 3 2.5 3 .9 0 1.8-.3 2.5-.8l1.5 5.5c-1.1 1-3 1.8-6 1.8-5 0-7.8-2.7-7.8-7.6zM281 235.1c0-2.4 1.9-4.3 4.3-4.3s4.3 1.9 4.3 4.3-1.9 4.3-4.3 4.3-4.3-1.9-4.3-4.3zm.7 7.9h7.2v27.6h-7.2V243zM294.4 256.8c0-7.8 5.5-14.5 14.6-14.5s14.7 6.6 14.7 14.5-5.5 14.5-14.6 14.5-14.7-6.7-14.7-14.5zm21.6 0c0-4.3-2.6-8-7.1-8s-7 3.7-7 8 2.5 8.1 7 8.1 7.1-3.8 7.1-8.1zM347.6 253.9c0-3.8-2-5.1-5.1-5.1-2.5 0-4.8 1.2-6.3 3.2v18.6H329V243h7.3v3.6c2.4-2.8 6-4.3 9.6-4.3 6 0 9 3.4 9 8.8v19.5h-7.3v-16.7zM376.8 231.4h4.8v40.4h-4.9l.1-40.4zM402 251.6c0-11.7 8.9-19.7 20-19.7 8.7 0 13.5 4.6 16.2 9.3l-7 3.4c-1.8-3.4-5.4-5.6-9.2-5.5-6.6 0-11.7 5.3-11.7 12.5s5 12.5 11.7 12.5c3.9 0 7.5-2.1 9.2-5.5l7 3.4c-3.2 6-9.5 9.6-16.2 9.4-11.2-.1-20-8.1-20-19.8zM455.4 242.3c8.2 0 13.8 6.2 13.8 15.2v1.6h-20.5c.5 3.5 3.2 6.4 7.9 6.4 2.7 0 5.3-1 7.4-2.7l3.2 4.7c-2.8 2.6-7.1 3.8-11.4 3.8-8.4 0-14.7-5.6-14.7-14.5 0-8 5.9-14.5 14.3-14.5zm-6.8 11.9h13.6c-.1-3.5-3.1-6.3-6.6-6.1h-.2c-3.6-.1-6.6 2.6-6.8 6.1zM493 253.9c0-3.8-2-5.1-5.1-5.1-2.5 0-4.8 1.2-6.3 3.2v18.6h-7.2V243h7.2v3.6c2.4-2.8 6-4.3 9.7-4.3 6 0 9 3.4 9 8.8v19.5H493v-16.7zM508.9 263.7v-14.4h-4.6V243h4.6v-7.5h7.3v7.5h5.6v6.3h-5.6v12.5c0 1.7.9 3 2.5 3 .9 0 1.8-.3 2.5-.8l1.5 5.5c-1.1 1-3 1.8-6 1.8-5.1 0-7.8-2.7-7.8-7.6zM526.8 243h7.2v3.8c2.2-2.7 5.4-4.3 8.8-4.4v7.1c-.7-.1-1.3-.2-2-.2-2.4 0-5.6 1.3-6.8 3.1v18.2h-7.2V243zM566.3 267.1c-2 2.6-5.2 4.2-8.5 4.2-7 0-12.2-5.3-12.2-14.5 0-9 5.2-14.5 12.2-14.5 3.3 0 6.5 1.6 8.5 4.2V243h7.3v27.6h-7.3v-3.5zm0-15.2c-1.5-2-3.8-3.1-6.3-3.1-4.1 0-7 3.2-7 8s2.9 8 7 8c2.5 0 4.8-1.2 6.3-3.1v-9.8zM580.8 232.5h7.2v38.1h-7.2v-38.1zM610.1 232.5h27v7h-18.9v8.3h18.5v7h-18.5v15.9h-8.1v-38.2zM642.5 232.5h7.2v38.1h-7.2v-38.1zM655.2 256.8c0-7.8 5.5-14.5 14.6-14.5s14.6 6.6 14.6 14.5-5.5 14.5-14.6 14.5-14.6-6.7-14.6-14.5zm21.6 0c0-4.3-2.6-8-7.1-8s-7 3.7-7 8 2.5 8.1 7 8.1 7.1-3.8 7.1-8.1zM689.8 243h7.2v3.8c2.2-2.7 5.4-4.3 8.8-4.4v7.1c-.7-.1-1.3-.2-2-.2-2.4 0-5.6 1.3-6.8 3.1v18.2h-7.2V243zM709.6 235.1c0-2.4 1.9-4.3 4.3-4.3s4.3 1.9 4.3 4.3-1.9 4.3-4.3 4.3-4.3-1.9-4.3-4.3zm.7 7.9h7.2v27.6h-7.2V243zM743.7 267.1c-2 2.6-5.2 4.2-8.5 4.2-7 0-12.2-5.3-12.2-14.5 0-9 5.2-14.5 12.2-14.5 3.3 0 6.5 1.6 8.5 4.2v-14h7.3v38.1h-7.3v-3.5zm0-15.2c-1.5-2-3.8-3.1-6.3-3.1-4.1 0-7 3.2-7 8s2.9 8 7 8c2.5 0 4.8-1.2 6.3-3.1v-9.8zM777.2 267.1c-2 2.6-5.2 4.2-8.5 4.2-7 0-12.2-5.3-12.2-14.5 0-9 5.2-14.5 12.2-14.5 3.3 0 6.5 1.6 8.5 4.2V243h7.3v27.6h-7.3v-3.5zm0-15.2c-1.5-2-3.8-3.1-6.3-3.1-4.1 0-7 3.2-7 8s2.9 8 7 8c2.5 0 4.8-1.2 6.3-3.1v-9.8z"/></svg>