<svg id="Layer_1" data-name="Layer 1" xmlns="http://www.w3.org/2000/svg" viewBox="0 0 720 720"><defs><style>.cls-1{fill:#576fb4}</style></defs><path class="cls-1" d="M258.44 82.01l51.94 53.83 73.79-12.26-35.16 66.02 34.47 66.39-73.66-13.02-52.49 53.29-10.37-74.08-66.9-33.45 67.24-32.76 11.14-73.96zM615.26 274.7l7.97 55.05 49.87 24.64-49.89 24.59-8.03 55.04-38.8-39.85-54.83 9.38 25.91-49.22-25.86-49.25 54.82 9.43 38.84-39.81zM137.15 375.94l32.92 44.83 55.6-1.71-32.46 45.17 18.81 52.35-52.99-16.91-43.98 34.06-.28-55.62-45.99-31.3 52.81-17.46 15.56-53.41z"/><path d="M240.81 289.75l-11.1-79.29-71.61-35.81 72-35.06L242 60.42 297.59 118l79-13.12-37.63 70.67 36.89 71.06-78.85-13.9zM174 174.74l62.2 31.09 9.64 68.87 48.79-49.54 68.48 12.11-32-61.72 32.68-61.38-68.6 11.4-48.28-50-10.35 68.76zM603.6 427.53l-42.48-43.62-60 10.26 28.36-53.88-28.31-53.9 60 10.32 42.52-43.58 8.73 60.26 54.59 27-54.62 26.92zm-40-51.16l35.14 36.08 7.26-49.83 45.17-22.27L606 318l-7.21-49.84-35.17 36.05-49.62-8.5 23.41 44.59-23.46 44.56zM97.55 526.82l-.32-60.88-50.33-34.26 57.81-19.12 17-58.46 36 49.08 60.86-1.87-35.47 49.44 20.59 57.3-58-18.51zM62.6 433.88l41.63 28.33.26 50.36 39.81-30.84 48 15.32-17-47.4 29.39-40.89-50.33 1.54-29.86-40.58-14.09 48.35z"/><path d="M417 488.55a94.91 94.91 0 10-65.27 0 161.78 161.78 0 00-119.88 105 209 209 0 00305 0 161.78 161.78 0 00-119.85-105z" fill="#dd2727"/><path d="M368.29 646.94A214.17 214.17 0 01213 579.66l-1.61-1.66.77-2.2a166.17 166.17 0 01111.53-104.75 98.74 98.74 0 1189.19 0 166.17 166.17 0 01111.54 104.72l.76 2.2-1.59 1.69a214.16 214.16 0 01-155.3 67.28zM220.16 576.1c39.21 40.77 91.72 63.19 148.13 63.19s108.91-22.42 148.12-63.19a158.39 158.39 0 00-116.26-100.27L387 473.12l12.66-4.63a91.08 91.08 0 10-62.64 0l12.65 4.63-13.2 2.71A158.39 158.39 0 00220.16 576.1z"/></svg>