<svg id="Layer_1" data-name="Layer 1" xmlns="http://www.w3.org/2000/svg" viewBox="0 0 720 720"><defs><style>.cls-1{fill:#576fb4}.cls-2{fill:#dd2727}</style></defs><path class="cls-1" d="M210.41 411.61a52.45 52.45 0 1136.07 0 89.4 89.4 0 0166.24 58 115.53 115.53 0 01-168.56 0 89.4 89.4 0 0166.25-58zM507.34 411.61a52.44 52.44 0 10-36.06 0 89.4 89.4 0 00-66.25 58 115.53 115.53 0 00168.56 0 89.4 89.4 0 00-66.25-58zM44.06 331.94h59.88l36.24 25.76-.52-25.76h14.71v-72.25H44.06v72.25z"/><path d="M217 497.11a119 119 0 01-86.27-37.37l-1.13-1.2.54-1.57a92.46 92.46 0 0160.59-57.83 55.17 55.17 0 1152.54 0A92.47 92.47 0 01303.83 457l.55 1.57-1.14 1.2A119 119 0 01217 497.11zm-81.15-39.9a112.79 112.79 0 00162.29 0 86.89 86.89 0 00-63.66-54.66l-9.4-1.93 9-3.3a49.72 49.72 0 10-34.19 0l9 3.3-9.41 1.93a86.92 86.92 0 00-63.65 54.66z"/><path class="cls-1" d="M688.22 330.2h-77.26l-46.77 33.23.68-33.23h-18.98v-93.23h142.33v93.23z"/><path d="M477.84 497.11a119 119 0 01-86.26-37.37l-1.14-1.2.56-1.54a92.47 92.47 0 0160.58-57.83 55.17 55.17 0 1152.55 0A92.47 92.47 0 01564.7 457l.55 1.57-1.14 1.2a119 119 0 01-86.27 37.34zm-81.14-39.9a112.79 112.79 0 00162.29 0 86.92 86.92 0 00-63.66-54.66l-9.4-1.93 9-3.3a49.72 49.72 0 10-34.19 0l9 3.3-9.4 1.93a86.9 86.9 0 00-63.64 54.66z"/><path class="cls-2" d="M199.6 255.67h77.26l46.77 33.24-.68-33.24h18.98v-93.22H199.6v93.22z"/><path d="M133.46 355.15l-39.95-28.39H31.78v-77.71h115.76v77.71h-14.65zM37.23 321.3h58l32.54 23.13-.47-23.13h14.76v-66.79H37.23zM551.8 360.88l.74-35.87h-18.93v-98.67H681.4V325h-79.13zm-12.73-41.32h19l-.62 30.6 43-30.6h75.41v-87.77H539.07zM316.91 286.36l-50.47-35.87h-79.12v-98.68H335.1v98.68h-18.92zM192.77 245h75.41l43.06 30.6-.63-30.6h19v-87.73H192.77z"/><path class="cls-2" d="M382.13 446.31a67.63 67.63 0 10-46.51 0 115.3 115.3 0 00-85.43 74.79 149 149 0 00217.37 0 115.26 115.26 0 00-85.43-74.79z"/><path d="M347.41 559.18a152.61 152.61 0 01-110.67-47.94L235.6 510l.55-1.56a118.4 118.4 0 0179.48-74.63 70.36 70.36 0 1163.56 0 118.38 118.38 0 0179.48 74.63l.55 1.56-1.14 1.21a152.6 152.6 0 01-110.67 47.97zM241.86 508.7a146.23 146.23 0 00211.11 0 112.87 112.87 0 00-82.85-71.45l-9.41-1.93 9-3.3a64.9 64.9 0 10-44.64 0l9 3.3-9.41 1.93a112.84 112.84 0 00-82.8 71.45z"/></svg>