<svg id="Layer_1" data-name="Layer 1" xmlns="http://www.w3.org/2000/svg" viewBox="0 0 720 720"><defs><style>.cls-1{fill:#576fb4;}.cls-2{fill:#dd2727;}</style></defs><path class="cls-1" d="M210.41,411.61a52.45,52.45,0,1,1,36.07,0,89.4,89.4,0,0,1,66.24,58,115.53,115.53,0,0,1-168.56,0A89.4,89.4,0,0,1,210.41,411.61Z"/><path class="cls-1" d="M507.34,411.61a52.44,52.44,0,1,0-36.06,0,89.4,89.4,0,0,0-66.25,58,115.53,115.53,0,0,0,168.56,0A89.4,89.4,0,0,0,507.34,411.61Z"/><polygon class="cls-1" points="44.06 331.94 103.94 331.94 140.18 357.7 139.66 331.94 154.37 331.94 154.37 259.69 44.06 259.69 44.06 331.94"/><path d="M217,497.11a119,119,0,0,1-86.27-37.37l-1.13-1.2.54-1.57a92.46,92.46,0,0,1,60.59-57.83,55.17,55.17,0,1,1,52.54,0A92.47,92.47,0,0,1,303.83,457l.55,1.57-1.14,1.2A119,119,0,0,1,217,497.11Zm-81.15-39.9a112.79,112.79,0,0,0,162.29,0,86.89,86.89,0,0,0-63.66-54.66l-9.4-1.93,9-3.3a49.72,49.72,0,1,0-34.19,0l9,3.3-9.41,1.93A86.92,86.92,0,0,0,135.83,457.21Z"/><polygon class="cls-1" points="688.22 330.2 610.96 330.2 564.19 363.43 564.87 330.2 545.89 330.2 545.89 236.97 688.22 236.97 688.22 330.2"/><path d="M477.84,497.11a119,119,0,0,1-86.26-37.37l-1.14-1.2L391,457a92.47,92.47,0,0,1,60.58-57.83,55.17,55.17,0,1,1,52.55,0A92.47,92.47,0,0,1,564.7,457l.55,1.57-1.14,1.2A119,119,0,0,1,477.84,497.11Zm-81.14-39.9a112.79,112.79,0,0,0,162.29,0,86.92,86.92,0,0,0-63.66-54.66l-9.4-1.93,9-3.3a49.72,49.72,0,1,0-34.19,0l9,3.3-9.4,1.93A86.9,86.9,0,0,0,396.7,457.21Z"/><polygon class="cls-2" points="199.6 255.67 276.86 255.67 323.63 288.91 322.95 255.67 341.93 255.67 341.93 162.45 199.6 162.45 199.6 255.67"/><path d="M133.46,355.15,93.51,326.76H31.78V249.05H147.54v77.71H132.89ZM37.23,321.3h58l32.54,23.13-.47-23.13h14.76V254.51H37.23Z"/><path d="M551.8,360.88l.74-35.87H533.61V226.34H681.4V325H602.27Zm-12.73-41.32h19l-.62,30.6,43-30.6h75.41V231.79H539.07Z"/><path d="M316.91,286.36l-50.47-35.87H187.32V151.81H335.1v98.68H316.18ZM192.77,245h75.41l43.06,30.6-.63-30.6h19V157.27H192.77Z"/><path class="cls-2" d="M382.13,446.31a67.63,67.63,0,1,0-46.51,0,115.3,115.3,0,0,0-85.43,74.79,149,149,0,0,0,217.37,0A115.26,115.26,0,0,0,382.13,446.31Z"/><path d="M347.41,559.18a152.61,152.61,0,0,1-110.67-47.94L235.6,510l.55-1.56a118.4,118.4,0,0,1,79.48-74.63,70.36,70.36,0,1,1,63.56,0,118.38,118.38,0,0,1,79.48,74.63l.55,1.56-1.14,1.21A152.6,152.6,0,0,1,347.41,559.18ZM241.86,508.7a146.23,146.23,0,0,0,211.11,0,112.87,112.87,0,0,0-82.85-71.45l-9.41-1.93,9-3.3a64.9,64.9,0,1,0-44.64,0l9,3.3-9.41,1.93A112.84,112.84,0,0,0,241.86,508.7Z"/></svg>