<svg id="Layer_1" data-name="Layer 1" xmlns="http://www.w3.org/2000/svg" viewBox="0 0 720 720"><defs><style>.cls-2{fill:#dd2727}</style></defs><path d="M538.76 85.76a133.92 133.92 0 10133.92 133.91A133.91 133.91 0 00538.76 85.76zm83.73 149.37h-66.66v62.8h-34.46v-62.8H455v-31.24h66.66v-62.47h34.46v62.47h66.34z" fill="#576fb4"/><path d="M529.23 346.1c-75.71 0-137.31-61.6-137.31-137.31s61.6-137.31 137.31-137.31 137.31 61.6 137.31 137.31S605 346.1 529.23 346.1zm0-267.84c-72 0-130.52 58.56-130.52 130.53s58.55 130.53 130.52 130.53 130.53-58.56 130.53-130.53S601.21 78.26 529.23 78.26zm20.46 212.18h-41.24v-62.8h-66.34v-38h66.66v-62.5H550v62.48h66.34v38h-66.65zm-34.45-6.79h27.67v-62.79h66.66V196.4h-66.34v-62.47h-27.67v62.47H448.9v24.46h66.34z"/><path class="cls-2" d="M587 435.92c-.11-1.52-.24-3.05-.39-4.57-1.07-10.79-3.26-21.4-7.65-31.47-2.91-6.67-7.95-12.06-10.21-19.27-3.27-10.43-8.73-19.83-18.59-25.75a3.29 3.29 0 01-1.7-2.95c-1.27-21.55-13.41-36.06-30.72-47.21-1.31-.84-3.36-1.57-3.69-2.73-2.18-7.83-8.75-12.49-13-18.76-9.25-13.57-21.9-22.8-36.38-30-16.78-8.3-35.39-11.14-52.7-17.86-5.83-2.25-12.11-3.07-18.44-3.38-8.81-.42-17.38-1-25.86-4.86-10.46-4.72-22-4.91-33.52-3.81-5.36.51-10.4 3-15.93 2.24a107.83 107.83 0 00-34.43.74c-6.15 1.11-11.83 5-18.06 4.39-28.08-2.85-52.79 4.72-74.4 22.73-.91.75-1.55 1.94-3.06 1.65-9.45-1.76-16.93 2.87-24.25 7.71-11.68 7.71-20.57 18.46-30.16 28.39-6.84 7.08-15.81 11.74-21.78 19.65-9.67 12.8-14.56 28-20.79 42.53A17 17 0 0092.86 369c.69 1.09 1.22 1.88.45 3.27-6.84 12.49-3.15 24.07 3.76 35 5.53 8.72 11.75 16.86 14.7 27.11a28.57 28.57 0 007.28 11.88 73.38 73.38 0 007.14 6.38c10.8 8.65 23.31 13.9 36.64 17 7.31 1.67 13.63 3.27 18.06 10.58 2.64 4.38 4.92 8.72 4.7 13.29-.37 7.83 3 13.31 8.74 17.41 10.06 7.22 19.9 14.81 30.67 21a78.24 78.24 0 0020.18 8.44c23.21 5.76 46.43 4.35 69.56-.45 3.22-.67 4.5-.42 5.95 2.65 4.67 9.92 11.1 18.58 20 25.17a21.86 21.86 0 015.72 6.75c10.23 17.43 20.4 34.87 28.48 53.45 3.57 8.23 8.89 15.06 17.63 18.4 5.23 2 10.69 1.55 14.95-1.71 3.87-3 2.26-7.73 1-11.73-2.4-7.63-4.84-15.26-7.66-22.75-1.59-4.22.25-3.81 3.21-3.24 22.81 4.44 45.6 5.89 68.37-.4 15.42-4.26 29.55-10.51 39.52-23.83 3-4 3.22-9.48 6-13.07 5.5-7.05 6.71-14.23 4.11-23 3.31 0 5.93.11 8.53 0 15.5-.8 28.84-6.24 39.14-18.23 8.42-9.81 12.73-21.48 15.62-33.83 4.59-19.48 3.04-39.07 1.69-58.62z"/><path class="cls-2" d="M587 435.92c-.11-1.52-.24-3.05-.39-4.57-1.07-10.79-3.26-21.4-7.65-31.47-2.91-6.67-7.95-12.06-10.21-19.27-3.27-10.43-8.73-19.83-18.59-25.75a3.29 3.29 0 01-1.7-2.95c-1.27-21.55-13.41-36.06-30.72-47.21-1.31-.84-3.36-1.57-3.69-2.73-2.18-7.83-8.75-12.49-13-18.76-9.25-13.57-21.9-22.8-36.38-30-16.78-8.3-35.39-11.14-52.7-17.86-5.83-2.25-12.11-3.07-18.44-3.38-8.81-.42-17.38-1-25.86-4.86-10.46-4.72-22-4.91-33.52-3.81-5.36.51-10.4 3-15.93 2.24a107.83 107.83 0 00-34.43.74c-6.15 1.11-11.83 5-18.06 4.39-28.08-2.85-52.79 4.72-74.4 22.73-.91.75-1.55 1.94-3.06 1.65-9.45-1.76-16.93 2.87-24.25 7.71-11.68 7.71-20.57 18.46-30.16 28.39-6.84 7.08-15.81 11.74-21.78 19.65-9.67 12.8-14.56 28-20.79 42.53A17 17 0 0092.86 369c.69 1.09 1.22 1.88.45 3.27-6.84 12.49-3.15 24.07 3.76 35 5.53 8.72 11.75 16.86 14.7 27.11a28.57 28.57 0 007.28 11.88 73.38 73.38 0 007.14 6.38c10.8 8.65 23.31 13.9 36.64 17 7.31 1.67 13.63 3.27 18.06 10.58 2.64 4.38 4.92 8.72 4.7 13.29-.37 7.83 3 13.31 8.74 17.41 10.06 7.22 19.9 14.81 30.67 21a78.24 78.24 0 0020.18 8.44c23.21 5.76 46.43 4.35 69.56-.45 3.22-.67 4.5-.42 5.95 2.65 4.67 9.92 11.1 18.58 20 25.17a21.86 21.86 0 015.72 6.75c10.23 17.43 20.4 34.87 28.48 53.45 3.57 8.23 8.89 15.06 17.63 18.4 5.23 2 10.69 1.55 14.95-1.71 3.87-3 2.26-7.73 1-11.73-2.4-7.63-4.84-15.26-7.66-22.75-1.59-4.22.25-3.81 3.21-3.24 22.81 4.44 45.6 5.89 68.37-.4 15.42-4.26 29.55-10.51 39.52-23.83 3-4 3.22-9.48 6-13.07 5.5-7.05 6.71-14.23 4.11-23 3.31 0 5.93.11 8.53 0 15.5-.8 28.84-6.24 39.14-18.23 8.42-9.81 12.73-21.48 15.62-33.83 4.59-19.48 3.04-39.07 1.69-58.62z"/><path d="M371.08 631.8a20.72 20.72 0 01-7.45-1.43c-8.68-3.31-15.07-9.92-19.54-20.21-8.17-18.81-18.85-37-28.28-53.09a18.38 18.38 0 00-4.82-5.74c-8.78-6.48-15.88-15.38-21.1-26.45a6.25 6.25 0 00-.56-1 9.29 9.29 0 00-1.61.23c-27 5.62-49.61 5.75-71.07.43a81.82 81.82 0 01-21.06-8.79c-8.77-5.06-17-11.06-25-16.86-2-1.45-4-2.9-6-4.33-7.13-5.13-10.55-12-10.15-20.32.18-3.76-2-7.68-4.22-11.38-3.53-5.83-8.36-7.3-15.91-9-15.08-3.46-27.51-9.22-38-17.62-6.63-5.31-13.11-11.4-15.57-20-2.24-7.83-6.55-14.38-11.11-21.31-1.07-1.64-2.14-3.27-3.19-4.93-5.69-9-12.27-22.64-4.07-38l-.1-.16c-3.74-6-4.45-13-1.94-18.87 1.36-3.17 2.66-6.38 4-9.58C69 311.89 73.76 300 81.57 289.7c3.72-4.92 8.43-8.61 13-12.18a85.61 85.61 0 009.07-7.78c2-2.05 3.92-4.13 5.87-6.21 7.51-8 15.27-16.33 24.86-22.66 6.81-4.5 15.27-10.07 26.14-8.31.27-.27.54-.54.83-.79 22.22-18.51 48.1-26.41 76.91-23.49 3 .31 6.23-.85 9.6-2.09a44.29 44.29 0 017.51-2.26 111.5 111.5 0 0135.51-.76c2.79.38 5.64-.3 8.66-1a46.18 46.18 0 016.48-1.24c10.07-1 23.17-1.35 35.23 4.11 7.73 3.49 15.73 4.13 24.63 4.56 7.94.38 14.13 1.53 19.5 3.61 7 2.72 14.49 4.85 21.69 6.91 10.42 3 21.2 6.07 31.29 11.06 17 8.39 28.93 18.27 37.68 31.09a60.67 60.67 0 004.65 5.71c3.42 3.87 6.95 7.86 8.67 13.46.28.18.7.4 1 .56.51.27 1 .54 1.44.82 20.51 13.21 31.07 29.52 32.27 49.86a1.06 1.06 0 000 .21c9.54 5.78 16.08 14.81 20.11 27.68a46 46 0 005.34 10.4 65.83 65.83 0 014.74 8.53c4.62 10.59 7.27 22.4 8.32 37.16l.11 1.45c1.36 19 2.77 38.68-1.78 58.1-3.61 15.44-8.66 26.31-16.35 35.27-10.3 12-24.28 18.53-41.53 19.41-1.46.07-2.92.08-4.43.06 1.35 8-.51 15-5.72 21.69a18.37 18.37 0 00-2.37 5.3 26.55 26.55 0 01-3.61 7.71c-11.41 15.25-28.08 21.41-41.33 25.07-20.1 5.54-42 5.77-68.74.69 2.53 6.86 4.75 13.78 7.16 21.4l.08.26c1.28 4.06 3.42 10.85-2.25 15.19a17.54 17.54 0 01-10.73 3.54zm-81.79-114.69c2.75 0 5 1.18 6.74 4.87 4.8 10.19 11 18 19 23.9a24.89 24.89 0 016.64 7.76c9.52 16.23 20.32 34.63 28.65 53.81 3.76 8.65 8.76 13.92 15.74 16.59 4.32 1.65 8.47 1.21 11.68-1.24 1.63-1.25 1.3-3.31-.1-7.75l-.08-.27c-2.56-8.08-4.89-15.36-7.6-22.56-.49-1.31-1.65-4.38.24-6.61s4.51-1.6 6.68-1.18c26.35 5.13 47.58 5 66.92-.32 13-3.58 27.59-9.07 37.71-22.6a20.47 20.47 0 002.61-5.8 23.66 23.66 0 013.45-7.32c4.8-6.15 5.86-12.12 3.53-20l-1.28-4.35h12.9c15.55-.8 27.56-6.38 36.73-17.06 6.95-8.09 11.54-18.08 14.89-32.39 4.32-18.42 2.94-37.56 1.62-56.07l-.11-1.46c-1-14-3.46-25.06-7.76-34.93a60.45 60.45 0 00-4.29-7.65c-2.27-3.65-4.62-7.42-6-12-3.52-11.25-9.12-19.06-17.1-23.85a6.61 6.61 0 01-3.33-5.65c-1.08-18.29-10.35-32.44-29.17-44.56-.29-.19-.63-.36-1-.54-1.49-.8-3.53-1.89-4.16-4.13-1.23-4.42-4.22-7.8-7.39-11.39a64.52 64.52 0 01-5.18-6.38c-8.06-11.81-19.2-21-35.08-28.83-9.54-4.72-20-7.72-30.14-10.61-7.35-2.11-15-4.28-22.28-7.12-4.67-1.81-10.19-2.81-17.38-3.16-9.6-.46-18.27-1.17-27.09-5.15-10.61-4.8-22.57-4.41-31.8-3.53a40.7 40.7 0 00-5.53 1.07c-3.5.85-7.11 1.72-11.19 1.15a105.33 105.33 0 00-33.36.72 40.28 40.28 0 00-6.39 2c-3.93 1.45-8 2.94-12.62 2.47-27.31-2.78-50.82 4.41-71.88 22a4 4 0 00-.36.35 5.92 5.92 0 01-5.49 2c-7.86-1.47-14.23 2.23-21.77 7.2-8.91 5.89-16.4 13.89-23.63 21.63-2 2.11-4 4.22-6 6.3a94 94 0 01-9.76 8.4c-4.41 3.45-8.57 6.71-11.75 10.93-7.28 9.62-11.9 21.06-16.38 32.11-1.31 3.25-2.62 6.5-4 9.71A13.67 13.67 0 0068 348.15c.81 1.29 2.25 3.59.54 6.7-5.23 9.56-4.11 19.28 3.65 31.51 1 1.63 2.08 3.23 3.13 4.83 4.64 7.06 9.43 14.35 12 23.17 1.83 6.37 6.64 11.22 13.29 16.55 9.67 7.74 21.21 13.07 35.28 16.3 7 1.6 14.92 3.42 20.2 12.13 2.65 4.4 5.46 9.55 5.19 15.21-.29 6.08 2 10.68 7.33 14.49 2 1.44 4 2.9 6 4.35 7.82 5.7 15.91 11.6 24.37 16.47a75 75 0 0019.3 8.08c20.44 5.07 42.07 4.92 68.06-.48a15.16 15.16 0 012.95-.35z"/></svg>