<svg id="Layer_1" data-name="Layer 1" xmlns="http://www.w3.org/2000/svg" viewBox="0 0 720 720"><defs><style>.cls-1{fill:#576fb4;}.cls-2{fill:#dd2727;}</style></defs><polygon class="cls-1" points="258.44 82.01 310.38 135.84 384.17 123.58 349.01 189.6 383.48 255.99 309.82 242.97 257.33 296.26 246.96 222.18 180.06 188.73 247.3 155.97 258.44 82.01"/><polygon class="cls-1" points="615.26 274.7 623.23 329.75 673.1 354.39 623.21 378.98 615.18 434.02 576.38 394.17 521.55 403.55 547.46 354.33 521.6 305.08 576.42 314.51 615.26 274.7"/><polygon class="cls-1" points="137.15 375.94 170.07 420.77 225.67 419.06 193.21 464.23 212.02 516.58 159.03 499.67 115.05 533.73 114.77 478.11 68.78 446.81 121.59 429.35 137.15 375.94"/><path d="M240.81,289.75l-11.1-79.29L158.1,174.65l72-35.06L242,60.42,297.59,118l79-13.12-37.63,70.67,36.89,71.06L297,232.71ZM174,174.74l62.2,31.09,9.64,68.87,48.79-49.54,68.48,12.11-32-61.72,32.68-61.38-68.6,11.4-48.28-50-10.35,68.76Z"/><path d="M603.6,427.53l-42.48-43.62-60,10.26,28.36-53.88-28.31-53.9,60,10.32,42.52-43.58,8.73,60.26,54.59,27-54.62,26.92Zm-40-51.16,35.14,36.08L606,362.62l45.17-22.27L606,318l-7.21-49.84-35.17,36.05L514,295.71l23.41,44.59-23.46,44.56Z"/><path d="M97.55,526.82l-.32-60.88L46.9,431.68l57.81-19.12,17-58.46,36,49.08,60.86-1.87L183.1,450.75l20.59,57.3-58-18.51ZM62.6,433.88l41.63,28.33.26,50.36,39.81-30.84,48,15.32-17-47.4,29.39-40.89-50.33,1.54L124.5,369.72l-14.09,48.35Z"/><path class="cls-2" d="M417,488.55a94.91,94.91,0,1,0-65.27,0,161.78,161.78,0,0,0-119.88,105,209,209,0,0,0,305,0A161.78,161.78,0,0,0,417,488.55Z"/><path d="M368.29,646.94A214.17,214.17,0,0,1,213,579.66L211.39,578l.77-2.2A166.17,166.17,0,0,1,323.69,471.05a98.74,98.74,0,1,1,89.19,0A166.17,166.17,0,0,1,524.42,575.77l.76,2.2-1.59,1.69A214.16,214.16,0,0,1,368.29,646.94ZM220.16,576.1c39.21,40.77,91.72,63.19,148.13,63.19S477.2,616.87,516.41,576.1A158.39,158.39,0,0,0,400.15,475.83L387,473.12l12.66-4.63a91.08,91.08,0,1,0-62.64,0l12.65,4.63-13.2,2.71A158.39,158.39,0,0,0,220.16,576.1Z"/></svg>