<svg id="Layer_1" data-name="Layer 1" xmlns="http://www.w3.org/2000/svg" viewBox="0 0 720 288"><defs><style>.cls-1{fill:#576fb4;}.cls-2{fill:#de2726;}</style></defs><path class="cls-1" d="M72.06,138.29v51.36H61.44V166.74H38.89v22.91H28.27V138.29H38.89v21H61.44v-21Z"/><path class="cls-1" d="M114.88,170V138.29h10.55v32.23c0,12.8-6.76,19.86-20.87,19.86s-20.88-7.06-20.88-19.86V138.29H94.3V170c0,8.51,2.47,12.22,10.26,12.22S114.88,178.52,114.88,170Z"/><path class="cls-1" d="M180.77,155.9,167.6,182.3H160L146.5,155.61v34h-9.38V138.29h10l16.73,32.37,16.58-32.37h9.82v51.36h-9.45Z"/><path class="cls-1" d="M261.75,155v34.62h-9.67V138.29h8.8l24.37,34.63V138.29h9.67v51.36h-9Z"/><path class="cls-1" d="M324.21,145.13c-4.87,0-8.15,1.6-8.15,5.6s2.33,5.31,5.39,6.33l7.05,2.33c7.57,2.54,15.06,5.68,15.06,15.49,0,10.55-8.73,15.5-20,15.5-7.93,0-13.82-1.46-18.48-4.44l2.77-7.71c3.56,2.25,9.82,4,15.64,4s9.53-1.75,9.53-6.11c0-4.8-3.64-6.26-8.08-7.78l-6.47-2.19c-6.48-2.1-13-5.6-13-14.4,0-9.82,8.44-14.62,18.69-14.62,7.06,0,12.66,1.09,16.81,4.08l-2.77,7.12C334.83,146.22,330.18,145.13,324.21,145.13Z"/><path class="cls-2" d="M384.86,138.29V171H391l-.43,7.64h-5.75v11H374.31v-11H351.76v-6.62l19.64-33.76ZM374.31,171v-21.1L362.67,171Z"/><path class="cls-1" d="M444.49,138.29v51.36H433.87V166.74H411.32v22.91H400.7V138.29h10.62v21h22.55v-21Z"/><path class="cls-1" d="M489.2,146.08h-22v12.73H488.4v7.71H467.23v15.35l23.86.29-.43,7.49H456.61V138.29h33.46Z"/><path class="cls-1" d="M526.93,173.87h-15.2l-5.6,15.78H495.66l1.38-4.29,17.31-47.07h10l16.8,47.07,1.46,4.29h-10Zm-2.47-6.48L519.37,150,514,167.39Z"/><path class="cls-1" d="M581.54,181.94l-.58,7.71H550.05V138.29h10.62v43.65Z"/><path class="cls-1" d="M609.61,189.65H599.06V146.08h-15v-7.79h40.58v7.79h-15Z"/><path class="cls-1" d="M675.42,138.29v51.36H664.8V166.74H642.25v22.91H631.63V138.29h10.62v21H664.8v-21Z"/><path class="cls-1" d="M684.71,150.17h-2.63V137.42h2.63Z"/><path class="cls-1" d="M690.26,141.58v8.59h-2.41V137.42H690l6.05,8.6v-8.6h2.4v12.75h-2.24Z"/><path class="cls-1" d="M707.43,150.35c-3.43,0-6.34-2.4-6.34-6.65a6.18,6.18,0,0,1,6.36-6.57,5.63,5.63,0,0,1,3.86,1.25l-.68,1.86a4.2,4.2,0,0,0-3-1c-2.24,0-3.83,1.73-3.83,4.51,0,3,1.59,4.59,3.82,4.59a5.07,5.07,0,0,0,3.1-1l.65,1.88A6.22,6.22,0,0,1,707.43,150.35Z"/><path class="cls-1" d="M404.92,205.12v10.34H402V200.12h2.66L412,210.46V200.12H415v15.34h-2.73Z"/><path class="cls-1" d="M424.83,199.77c4.47,0,7.82,2.94,7.82,8s-3.37,7.93-7.82,7.93-7.79-2.94-7.79-7.93S420.39,199.77,424.83,199.77Zm0,2.5c-3.06,0-4.55,2.28-4.55,5.52s1.52,5.43,4.55,5.43,4.61-2.19,4.61-5.43S427.94,202.27,424.85,202.27Z"/><path class="cls-1" d="M438.58,216.4c1.65,0,1.94-.64,1.94-2.31v-14h3.19V214c0,3.44-1.17,4.7-5.33,4.7h-.51l-.17-2.28Z"/><path class="cls-1" d="M455.6,209.59v-9.47h3.19v9.63c0,3.82-2.05,5.93-6.32,5.93s-6.32-2.11-6.32-5.93v-9.63h3.22v9.47c0,2.55.75,3.65,3.1,3.65S455.6,212.14,455.6,209.59Z"/><path class="cls-1" d="M466.42,215.46h-5.18V200.12h4.21c5.83,0,9.79,2.09,9.79,7.71C475.24,212.83,471.63,215.46,466.42,215.46Zm-.73-13h-1.23v10.58h2.15c3.5,0,5.44-1.85,5.44-5.21C472.05,203.84,469.94,202.51,465.69,202.51Z"/><path class="cls-1" d="M487.38,209.27H484l.14-2.2h6.07v7.17a11.72,11.72,0,0,1-5.55,1.44c-4.75,0-7.9-3.11-7.9-8,0-4.47,2.86-7.91,7.88-7.91a8,8,0,0,1,5.15,1.5l-.94,2.07a8,8,0,0,0-4.05-1.07c-2.93,0-4.76,1.83-4.78,5.43v.09c0,3.11,1.43,5.43,4.53,5.43a5.67,5.67,0,0,0,2.8-.61Z"/><path class="cls-1" d="M502.56,202.45h-6.65v3.8h6.4v2.3h-6.4v4.59l7.22.08-.13,2.24H492.69V200.12h10.13Z"/><path class="cls-1" d="M518,205.38l-4,7.89h-2.31l-4.07-8v10.17h-2.84V200.12h3l5.07,9.67,5-9.67h3v15.34H518Z"/><path class="cls-1" d="M533.35,202.45H526.7v3.8h6.4v2.3h-6.4v4.59l7.22.08-.13,2.24H523.48V200.12h10.13Z"/><path class="cls-1" d="M538.54,205.12v10.34h-2.92V200.12h2.66l7.38,10.34V200.12h2.92v15.34h-2.73Z"/><path class="cls-1" d="M557.33,215.46h-3.19v-13H549.6v-2.33h12.29v2.33h-4.56Z"/><path class="cls-1" d="M565.81,213.09l-1.87,5.61H562l1.23-5.61Z"/><path class="cls-1" d="M575.17,205.12v10.34h-2.93V200.12h2.67l7.37,10.34V200.12h2.93v15.34h-2.73Z"/><path class="cls-1" d="M595.08,199.77c4.47,0,7.82,2.94,7.82,8s-3.37,7.93-7.82,7.93-7.8-2.94-7.8-7.93S590.63,199.77,595.08,199.77Zm0,2.5c-3.06,0-4.56,2.28-4.56,5.52s1.52,5.43,4.56,5.43,4.6-2.19,4.6-5.43S598.18,202.27,595.1,202.27Z"/><path class="cls-1" d="M619.26,213.16l-.18,2.3h-9.35V200.12h3.21v13Z"/><path class="cls-1" d="M623.86,215.46h-3.21V200.12h3.21Z"/><path class="cls-1" d="M639.81,205.38l-4,7.89h-2.31l-4.07-8v10.17H626.6V200.12h3l5.07,9.67,5-9.67h3v15.34h-2.86Z"/><path class="cls-1" d="M648.6,215.46h-3.22V200.12h3.22Z"/><path class="cls-1" d="M657.47,215.46h-3.19v-13h-4.54v-2.33H662v2.33h-4.56Z"/><path class="cls-1" d="M668.22,202.16c-1.47,0-2.46.48-2.46,1.68s.7,1.58,1.62,1.89l2.14.69c2.29.76,4.56,1.7,4.56,4.63,0,3.15-2.64,4.63-6.06,4.63a10.16,10.16,0,0,1-5.59-1.33l.84-2.3a9.82,9.82,0,0,0,4.73,1.19c1.74,0,2.89-.52,2.89-1.82s-1.11-1.87-2.45-2.33l-2-.65c-2-.63-3.92-1.67-3.92-4.3,0-2.93,2.56-4.37,5.66-4.37a8.66,8.66,0,0,1,5.09,1.22l-.84,2.13A8.11,8.11,0,0,0,668.22,202.16Z"/><polygon class="cls-1" points="247.38 185.36 230.58 138.29 220.61 138.29 230.28 165.62 223.79 165.62 220.28 172.07 232.56 172.07 233.19 173.87 238.8 189.65 248.84 189.65 247.38 185.36"/><path class="cls-2" d="M88.88,128.57q2.67-6,5.87-12.07a177.73,177.73,0,0,1,20.93-31.09,146.12,146.12,0,0,1,16.42-16.7,116.68,116.68,0,0,1,14.32-10.62C157.83,51,169.34,46.9,180,46.44l-7.54,14.18L207.21,50,196.5,15.46l-8.09,15.19c-13.33-.34-28,4.45-42.5,13.51a132.58,132.58,0,0,0-14.34,10.4,164.1,164.1,0,0,0-16.46,15.73A203.85,203.85,0,0,0,86,111.88C83,117.42,80.4,123,78,128.57Z"/><path class="cls-2" d="M222.77,48.11l-8.36,15.72c8.19,12.38,11.32,30.29,9.3,50.57a145.71,145.71,0,0,1-4.92,25.38,177.94,177.94,0,0,1-14,34.45c-13.9,26.12-32.66,46.54-51.75,58.46a88.56,88.56,0,0,1-14.5,7.38,61.5,61.5,0,0,1-16.9,4.11,39.88,39.88,0,0,1-22.25-4.13A39.42,39.42,0,0,1,83.5,224.26a61.36,61.36,0,0,1-6.57-18.19c-.53-2.66-.92-5.44-1.2-8.28H63.37a106.92,106.92,0,0,0,1.51,15.8,75.8,75.8,0,0,0,5.73,18.73c4.67,10.13,11.58,18.05,20.74,22.85s19.74,6,30.85,4.11a77.07,77.07,0,0,0,16.86-5.06,103.87,103.87,0,0,0,14.51-7.62c22.13-13.82,43.88-37.48,60-67.75a202,202,0,0,0,18.12-47.12,161.32,161.32,0,0,0,4.09-24.85C237.73,82.89,233.31,62,222.77,48.11Z"/></svg>